<svg width="20" height="20" viewBox="0 0 20 20" fill="#ffffff" xmlns="http://www.w3.org/2000/svg">
<path fill-rule="evenodd" clip-rule="evenodd" d="M0 7.8089C0 12.1338 3.48397 15.6178 7.8089 15.6178C9.7545 15.6178 11.5299 14.9128 12.8945 13.7433L18.1695 19.0183L19.0189 18.1689L13.7438 12.8938C14.913 11.5293 15.6178 9.75418 15.6178 7.8089C15.6178 3.48397 12.1338 0 7.8089 0C3.48397 0 0 3.48397 0 7.8089ZM1.20137 7.8089C1.20137 4.14472 4.14472 1.20137 7.8089 1.20137C11.4731 1.20137 14.4164 4.14472 14.4164 7.8089C14.4164 11.4731 11.4731 14.4164 7.8089 14.4164C4.14472 14.4164 1.20137 11.4731 1.20137 7.8089Z" fill="#fff"/>
</svg>
